<?xml version="1.0" encoding="UTF-8"?>
<svg xmlns="http://www.w3.org/2000/svg" viewBox="0 0 128 128" fill="none">
  <!-- Downloads Folder -->
  <path d="M12 36 L12 100 Q12 108 20 108 L108 108 Q116 108 116 100 L116 48 Q116 40 108 40 L60 40 L52 28 Q50 24 46 24 L20 24 Q12 24 12 36Z" fill="#F5A623"/>
  <path d="M12 52 L116 52 L116 100 Q116 108 108 108 L20 108 Q12 108 12 100Z" fill="#FFD080"/>
  <!-- Download arrow -->
  <line x1="64" y1="62" x2="64" y2="86" stroke="#C4841A" stroke-width="4" stroke-linecap="round"/>
  <polyline points="52,78 64,90 76,78" fill="none" stroke="#C4841A" stroke-width="4" stroke-linecap="round" stroke-linejoin="round"/>
</svg>
